<?xml version="1.0" standalone="no"?>
<!DOCTYPE svg PUBLIC "-//W3C//DTD SVG 20010904//EN"
 "http://www.w3.org/TR/2001/REC-SVG-20010904/DTD/svg10.dtd">
<svg version="1.0" xmlns="http://www.w3.org/2000/svg"
 width="192.000000pt" height="192.000000pt" viewBox="0 0 192.000000 192.000000"
 preserveAspectRatio="xMidYMid meet">
<metadata>
Created by potrace 1.11, written by Peter Selinger 2001-2013
</metadata>
<g transform="translate(0.000000,192.000000) scale(0.100000,-0.100000)"
fill="#000000" stroke="none">
<path d="M434 1666 c-36 -16 -50 -55 -33 -89 20 -39 92 -99 154 -129 81 -38
88 -36 59 17 -13 25 -22 45 -20 45 2 0 0 16 -4 35 -4 19 -4 51 0 71 7 32 6 36
-18 45 -45 17 -105 19 -138 5z"/>
<path d="M1800 1573 c-25 -8 -144 -51 -265 -95 -121 -43 -227 -81 -235 -83 -8
-3 -57 -19 -109 -37 -106 -36 -131 -60 -136 -127 -4 -48 -9 -48 130 -3 44 14
82 27 85 27 16 3 192 59 225 72 22 8 41 15 42 14 2 0 8 1 15 4 7 2 66 20 130
40 l118 36 16 52 c16 52 33 117 30 117 0 -1 -21 -8 -46 -17z"/>
<path d="M359 1554 c-5 -76 2 -130 23 -172 l23 -45 225 -74 c124 -40 228 -73
232 -73 10 0 -3 83 -18 107 -10 16 -45 32 -126 58 -62 19 -128 42 -145 50 -18
8 -48 22 -67 31 -43 20 -116 82 -116 99 0 7 -7 18 -15 25 -12 10 -15 9 -16 -6z"/>
<path d="M0 1382 c0 -5 137 -423 160 -487 6 -16 24 -72 41 -124 36 -112 48
-138 86 -173 24 -23 114 -60 177 -73 65 -14 209 -61 264 -86 66 -30 164 -117
177 -158 3 -12 11 -21 16 -21 6 0 8 4 5 8 -4 8 -14 198 -21 422 -9 301 -15
374 -34 400 -18 26 -55 40 -281 109 -58 18 -112 35 -120 38 -8 4 -17 7 -20 8
-3 0 -21 6 -40 12 -19 6 -96 30 -170 53 -74 23 -159 50 -187 60 -29 10 -53 15
-53 12z"/>
<path d="M1830 1359 c-36 -11 -72 -23 -80 -26 -8 -4 -17 -7 -20 -8 -3 0 -30
-8 -60 -18 -30 -9 -57 -16 -60 -15 -3 0 -23 -7 -45 -17 -22 -9 -47 -18 -55
-20 -8 -1 -44 -13 -80 -25 -36 -12 -72 -23 -80 -25 -18 -4 -97 -28 -204 -64
-53 -18 -85 -34 -97 -51 -21 -29 -22 -43 -44 -668 -2 -79 -7 -147 -10 -153 -4
-5 -2 -9 3 -9 4 0 18 18 31 40 52 92 151 148 376 211 190 52 236 76 268 134 8
16 132 373 141 410 2 6 6 17 9 25 7 20 40 122 43 135 1 6 14 43 28 84 14 41
26 76 26 78 0 7 -27 1 -90 -18z"/>
</g>
</svg>
